<svg width="20" height="20" viewBox="0 0 20 20" fill="none" xmlns="http://www.w3.org/2000/svg">
<path d="M11.3905 8.21391C11.6927 8.56222 12.2201 8.59958 12.5684 8.29734C12.9167 7.99511 12.9541 7.46774 12.6519 7.11943L11.3905 8.21391ZM8.60952 11.7861C8.30729 11.4378 7.77991 11.4004 7.4316 11.7027C7.08329 12.0049 7.04593 12.5323 7.34816 12.8806L8.60952 11.7861ZM10.835 6.11111C10.835 5.64995 10.4612 5.27611 10 5.27611C9.53884 5.27611 9.165 5.64995 9.165 6.11111H10.835ZM9.165 13.8889C9.16499 14.35 9.53883 14.7239 9.99998 14.7239C10.4611 14.7239 10.835 14.3501 10.835 13.8889L9.165 13.8889ZM16.165 10C16.165 13.4048 13.4048 16.165 10 16.165V17.835C14.3272 17.835 17.835 14.3272 17.835 10H16.165ZM10 16.165C6.59516 16.165 3.835 13.4048 3.835 10H2.165C2.165 14.3272 5.67285 17.835 10 17.835V16.165ZM3.835 10C3.835 6.59516 6.59516 3.835 10 3.835V2.165C5.67285 2.165 2.165 5.67285 2.165 10H3.835ZM10 3.835C13.4048 3.835 16.165 6.59516 16.165 10H17.835C17.835 5.67285 14.3272 2.165 10 2.165V3.835ZM10 9.165C9.49752 9.165 9.08039 9.02771 8.81326 8.84963C8.54029 8.66765 8.50167 8.50795 8.50167 8.44444H6.83167C6.83167 9.24005 7.31537 9.85813 7.88691 10.2392C8.46428 10.6241 9.21381 10.835 10 10.835V9.165ZM8.50167 8.44444C8.50167 8.38094 8.54029 8.22124 8.81326 8.03926C9.08039 7.86118 9.49752 7.72389 10 7.72389V6.05389C9.21381 6.05389 8.46428 6.26482 7.88691 6.64974C7.31537 7.03076 6.83167 7.64884 6.83167 8.44444H8.50167ZM10 7.72389C10.6911 7.72389 11.1861 7.97835 11.3905 8.21391L12.6519 7.11943C12.0494 6.42507 11.0362 6.05389 10 6.05389V7.72389ZM10 10.835C10.5025 10.835 10.9196 10.9723 11.1868 11.1504C11.4597 11.3324 11.4984 11.4921 11.4984 11.5556H13.1684C13.1684 10.7599 12.6846 10.1419 12.1131 9.76085C11.5357 9.37594 10.7862 9.165 10 9.165V10.835ZM9.165 6.11111V6.88889H10.835V6.11111H9.165ZM9.16502 13.1111L9.165 13.8889L10.835 13.8889L10.835 13.1111L9.16502 13.1111ZM10 12.2761C9.30891 12.2761 8.8139 12.0216 8.60952 11.7861L7.34816 12.8806C7.95066 13.5749 8.96382 13.9461 10 13.9461L10 12.2761ZM11.4984 11.5556C11.4984 11.6191 11.4597 11.7788 11.1868 11.9607C10.9196 12.1388 10.5025 12.2761 10 12.2761V13.9461C10.7862 13.9461 11.5357 13.7352 12.1131 13.3503C12.6846 12.9692 13.1684 12.3512 13.1684 11.5556H11.4984ZM9.165 6.88889L9.16502 13.1111L10.835 13.1111L10.835 6.88889L9.165 6.88889Z" fill="#475569"/>
</svg>
