<svg width="17" height="16" viewBox="0 0 17 16" fill="none" xmlns="http://www.w3.org/2000/svg">
<g clip-path="url(#clip0_358_21783)">
<path d="M13.6666 6H7.66659C6.93021 6 6.33325 6.59695 6.33325 7.33333V13.3333C6.33325 14.0697 6.93021 14.6667 7.66659 14.6667H13.6666C14.403 14.6667 14.9999 14.0697 14.9999 13.3333V7.33333C14.9999 6.59695 14.403 6 13.6666 6Z" stroke="#64748B" stroke-width="1.5" stroke-linecap="round" stroke-linejoin="round"/>
<path d="M3.6665 10H2.99984C2.64622 10 2.30708 9.85953 2.05703 9.60949C1.80698 9.35944 1.6665 9.0203 1.6665 8.66668V2.66668C1.6665 2.31305 1.80698 1.97392 2.05703 1.72387C2.30708 1.47382 2.64622 1.33334 2.99984 1.33334H8.99984C9.35346 1.33334 9.6926 1.47382 9.94265 1.72387C10.1927 1.97392 10.3332 2.31305 10.3332 2.66668V3.33334" stroke="#64748B" stroke-width="1.5" stroke-linecap="round" stroke-linejoin="round"/>
</g>
<defs>
<clipPath id="clip0_358_21783">
<rect width="16" height="16" fill="white" transform="translate(0.333252)"/>
</clipPath>
</defs>
</svg>
