<svg width="34" height="34" viewBox="0 0 34 34" fill="none" xmlns="http://www.w3.org/2000/svg">
<path d="M24 19.4454C23.1638 19.7815 22.2505 19.9664 21.2941 19.9664C17.2842 19.9664 14.0336 16.7158 14.0336 12.7059C14.0336 11.7495 14.2185 10.8362 14.5546 10C11.8849 11.0729 10 13.6861 10 16.7395C10 20.7494 13.2506 24 17.2605 24C20.3139 24 22.9271 22.1151 24 19.4454Z" stroke="#475569" stroke-width="1.67" stroke-linecap="round" stroke-linejoin="round"/>
<path d="M17 32C8.71573 32 2 25.2843 2 17H0C0 26.3888 7.61116 34 17 34V32ZM32 17C32 25.2843 25.2843 32 17 32V34C26.3888 34 34 26.3888 34 17H32ZM17 2C25.2843 2 32 8.71573 32 17H34C34 7.61116 26.3888 0 17 0V2ZM17 0C7.61116 0 0 7.61116 0 17H2C2 8.71573 8.71573 2 17 2V0Z" fill="#475569"/>
</svg>
