<svg width="34" height="34" viewBox="0 0 34 34" fill="none" xmlns="http://www.w3.org/2000/svg">
<path d="M17 32C8.71573 32 2 25.2843 2 17H0C0 26.3888 7.61116 34 17 34V32ZM32 17C32 25.2843 25.2843 32 17 32V34C26.3888 34 34 26.3888 34 17H32ZM17 2C25.2843 2 32 8.71573 32 17H34C34 7.61116 26.3888 0 17 0V2ZM17 0C7.61116 0 0 7.61116 0 17H2C2 8.71573 8.71573 2 17 2V0Z" fill="#475569"/>
<path d="M17 8V9V8ZM17 25V26V25ZM26 17H25H26ZM9 17H8H9ZM23.364 23.364L22.6569 22.6569L23.364 23.364ZM11.3431 11.3432L10.636 10.636L11.3431 11.3432ZM23.364 10.6361L22.6569 11.3432L23.364 10.6361ZM11.3432 22.6569L10.6361 23.364L11.3432 22.6569ZM21 17C21 19.2091 19.2092 21 17 21C14.7909 21 13 19.2091 13 17C13 14.7909 14.7909 13 17 13C19.2092 13 21 14.7909 21 17Z" stroke="#475569" stroke-width="2" stroke-linecap="round" stroke-linejoin="round"/>
</svg>
