<svg width="20" height="20" viewBox="0 0 20 20" fill="none" xmlns="http://www.w3.org/2000/svg">
<path d="M9.99998 1V2V1ZM9.99998 18V19V18ZM19 10H18H19ZM2 10H1H2ZM16.364 16.364L15.6569 15.6569L16.364 16.364ZM4.34315 4.34315L3.63604 3.63604L4.34315 4.34315ZM16.364 3.63609L15.6569 4.3432L16.364 3.63609ZM4.3432 15.6569L3.63609 16.364L4.3432 15.6569ZM14 10C14 12.2091 12.2092 14 9.99998 14C7.79086 14 6 12.2091 6 10C6 7.79086 7.79086 6 9.99998 6C12.2092 6 14 7.79086 14 10Z" stroke="#475569" stroke-width="2" stroke-linecap="round" stroke-linejoin="round"/>
</svg>
