<svg width="20" height="20" viewBox="0 0 20 20" fill="none" xmlns="http://www.w3.org/2000/svg">
<path d="M17 8.44443V9.27943C17.4612 9.27943 17.835 8.90559 17.835 8.44443H17ZM17 11.5555H17.835C17.835 11.0944 17.4612 10.7205 17 10.7205V11.5555ZM3 11.5555V10.7205C2.53884 10.7205 2.165 11.0944 2.165 11.5555H3ZM3 8.44443H2.165C2.165 8.90559 2.53884 9.27943 3 9.27943V8.44443ZM13.1683 4.55554C13.1683 4.09438 12.7945 3.72054 12.3333 3.72054C11.8722 3.72054 11.4983 4.09438 11.4983 4.55554H13.1683ZM11.4983 6.1111C11.4983 6.57226 11.8722 6.9461 12.3333 6.9461C12.7945 6.9461 13.1683 6.57226 13.1683 6.1111H11.4983ZM13.1683 9.22221C13.1683 8.76105 12.7945 8.38721 12.3333 8.38721C11.8722 8.38721 11.4983 8.76105 11.4983 9.22221H13.1683ZM11.4983 10.7778C11.4983 11.2389 11.8722 11.6128 12.3333 11.6128C12.7945 11.6128 13.1683 11.2389 13.1683 10.7778H11.4983ZM13.1683 13.8889C13.1683 13.4277 12.7945 13.0539 12.3333 13.0539C11.8722 13.0539 11.4983 13.4277 11.4983 13.8889H13.1683ZM11.4983 15.4444C11.4983 15.9056 11.8722 16.2794 12.3333 16.2794C12.7945 16.2794 13.1683 15.9056 13.1683 15.4444H11.4983ZM4.55556 3.72054C3.23529 3.72054 2.165 4.79083 2.165 6.1111H3.835C3.835 5.71315 4.1576 5.39054 4.55556 5.39054V3.72054ZM15.4444 3.72054H4.55556V5.39054H15.4444V3.72054ZM17.835 6.1111C17.835 4.79083 16.7647 3.72054 15.4444 3.72054V5.39054C15.8424 5.39054 16.165 5.71315 16.165 6.1111H17.835ZM17.835 8.44443V6.1111H16.165V8.44443H17.835ZM16.2794 9.99999C16.2794 9.60203 16.602 9.27943 17 9.27943V7.60943C15.6797 7.60943 14.6094 8.67972 14.6094 9.99999H16.2794ZM17 10.7205C16.602 10.7205 16.2794 10.3979 16.2794 9.99999H14.6094C14.6094 11.3203 15.6797 12.3905 17 12.3905V10.7205ZM17.835 13.8889V11.5555H16.165V13.8889H17.835ZM15.4444 16.2794C16.7647 16.2794 17.835 15.2091 17.835 13.8889H16.165C16.165 14.2868 15.8424 14.6094 15.4444 14.6094V16.2794ZM4.55556 16.2794H15.4444V14.6094H4.55556V16.2794ZM2.165 13.8889C2.165 15.2091 3.23529 16.2794 4.55556 16.2794V14.6094C4.1576 14.6094 3.835 14.2868 3.835 13.8889H2.165ZM2.165 11.5555V13.8889H3.835V11.5555H2.165ZM3.72056 9.99999C3.72056 10.3979 3.39795 10.7205 3 10.7205V12.3905C4.32027 12.3905 5.39056 11.3203 5.39056 9.99999H3.72056ZM3 9.27943C3.39795 9.27943 3.72056 9.60203 3.72056 9.99999H5.39056C5.39056 8.67972 4.32027 7.60943 3 7.60943V9.27943ZM2.165 6.1111V8.44443H3.835V6.1111H2.165ZM11.4983 4.55554V6.1111H13.1683V4.55554H11.4983ZM11.4983 9.22221V10.7778H13.1683V9.22221H11.4983ZM11.4983 13.8889V15.4444H13.1683V13.8889H11.4983Z" fill="#475569"/>
</svg>
