<svg width="20" height="20" viewBox="0 0 20 20" fill="none" xmlns="http://www.w3.org/2000/svg">
<path d="M11.1667 3.52662L10.5406 4.07917C10.5521 4.09217 10.564 4.1048 10.5762 4.11706L11.1667 3.52662ZM16.4734 11.1667L15.9208 10.5406C15.9078 10.5521 15.8952 10.564 15.8829 10.5762L16.4734 11.1667ZM16.6111 8.97107L17.2371 8.41852C17.2257 8.40553 17.2138 8.39289 17.2015 8.38063L16.6111 8.97107ZM8.97107 16.6111L8.38063 17.2015C8.39289 17.2138 8.40553 17.2257 8.41852 17.2371L8.97107 16.6111ZM11.0289 16.6111L11.5815 17.2371C11.5945 17.2257 11.6071 17.2138 11.6194 17.2015L11.0289 16.6111ZM3.52662 11.1667L4.11706 10.5762L4.09867 10.5578L4.07917 10.5406L3.52662 11.1667ZM6.11111 5.27611C5.64995 5.27611 5.27611 5.64995 5.27611 6.11111C5.27611 6.57227 5.64995 6.94611 6.11111 6.94611V5.27611ZM6.11889 6.94611C6.58005 6.94611 6.95389 6.57227 6.95389 6.11111C6.95389 5.64995 6.58005 5.27611 6.11889 5.27611V6.94611ZM3.835 6.11111C3.835 4.85405 4.85405 3.835 6.11111 3.835V2.165C3.93173 2.165 2.165 3.93173 2.165 6.11111H3.835ZM3.835 10V6.11111H2.165V10H3.835ZM6.11111 3.835H10V2.165H6.11111V3.835ZM10 3.835C10.2151 3.835 10.4074 3.9282 10.5406 4.07917L11.7927 2.97408C11.3559 2.47917 10.7141 2.165 10 2.165V3.835ZM16.165 10C16.165 10.2151 16.0718 10.4074 15.9208 10.5406L17.0259 11.7927C17.5208 11.3559 17.835 10.7141 17.835 10H16.165ZM15.9851 9.52362C16.0976 9.65114 16.165 9.81669 16.165 10H17.835C17.835 9.3943 17.6086 8.83943 17.2371 8.41852L15.9851 9.52362ZM10 16.165C9.81669 16.165 9.65114 16.0976 9.52362 15.9851L8.41852 17.2371C8.83943 17.6086 9.3943 17.835 10 17.835V16.165ZM10.4764 15.9851C10.3489 16.0976 10.1833 16.165 10 16.165V17.835C10.6057 17.835 11.1606 17.6086 11.5815 17.2371L10.4764 15.9851ZM4.07917 10.5406C3.9282 10.4074 3.835 10.2151 3.835 10H2.165C2.165 10.7141 2.47917 11.3559 2.97408 11.7927L4.07917 10.5406ZM10.5762 4.11706L16.0207 9.5615L17.2015 8.38063L11.7571 2.93619L10.5762 4.11706ZM9.5615 16.0207L4.11706 10.5762L2.93619 11.7571L8.38063 17.2015L9.5615 16.0207ZM15.8829 10.5762L10.4385 16.0207L11.6194 17.2015L17.0638 11.7571L15.8829 10.5762ZM6.11111 6.94611H6.11889V5.27611H6.11111V6.94611Z" fill="#475569"/>
</svg>
