<svg width="20" height="20" viewBox="0 0 20 20" fill="none" xmlns="http://www.w3.org/2000/svg">
<path d="M3.875 10H3.88375M10 10H10.0088M16.125 10H16.1338M4.75 10C4.75 10.4832 4.35825 10.875 3.875 10.875C3.39175 10.875 3 10.4832 3 10C3 9.51675 3.39175 9.125 3.875 9.125C4.35825 9.125 4.75 9.51675 4.75 10ZM10.875 10C10.875 10.4832 10.4832 10.875 10 10.875C9.51675 10.875 9.125 10.4832 9.125 10C9.125 9.51675 9.51675 9.125 10 9.125C10.4832 9.125 10.875 9.51675 10.875 10ZM17 10C17 10.4832 16.6082 10.875 16.125 10.875C15.6418 10.875 15.25 10.4832 15.25 10C15.25 9.51675 15.6418 9.125 16.125 9.125C16.6082 9.125 17 9.51675 17 10Z" stroke="#475569" stroke-width="1.67" stroke-linecap="round" stroke-linejoin="round"/>
</svg>
