<svg width="20" height="20" viewBox="0 0 20 20" fill="none" xmlns="http://www.w3.org/2000/svg">
<path d="M3 4.75C3 3.7835 3.7835 3 4.75 3H6.5C7.4665 3 8.25 3.7835 8.25 4.75V6.5C8.25 7.4665 7.4665 8.25 6.5 8.25H4.75C3.7835 8.25 3 7.4665 3 6.5V4.75Z" stroke="#475569" stroke-width="1.67" stroke-linecap="round" stroke-linejoin="round"/>
<path d="M11.75 4.75C11.75 3.7835 12.5335 3 13.5 3H15.25C16.2165 3 17 3.7835 17 4.75V6.5C17 7.4665 16.2165 8.25 15.25 8.25H13.5C12.5335 8.25 11.75 7.4665 11.75 6.5V4.75Z" stroke="#475569" stroke-width="1.67" stroke-linecap="round" stroke-linejoin="round"/>
<path d="M3 13.5C3 12.5335 3.7835 11.75 4.75 11.75H6.5C7.4665 11.75 8.25 12.5335 8.25 13.5V15.25C8.25 16.2165 7.4665 17 6.5 17H4.75C3.7835 17 3 16.2165 3 15.25V13.5Z" stroke="#475569" stroke-width="1.67" stroke-linecap="round" stroke-linejoin="round"/>
<path d="M11.75 13.5C11.75 12.5335 12.5335 11.75 13.5 11.75H15.25C16.2165 11.75 17 12.5335 17 13.5V15.25C17 16.2165 16.2165 17 15.25 17H13.5C12.5335 17 11.75 16.2165 11.75 15.25V13.5Z" stroke="#475569" stroke-width="1.67" stroke-linecap="round" stroke-linejoin="round"/>
</svg>
