<svg width="20" height="20" viewBox="0 0 20 20" fill="none" xmlns="http://www.w3.org/2000/svg">
<path d="M4.6497 14.514C6.22985 13.6209 8.0554 13.1111 10 13.1111C11.9446 13.1111 13.7702 13.6209 15.3503 14.514M12.3333 8.44444C12.3333 9.73311 11.2887 10.7778 10 10.7778C8.71134 10.7778 7.66667 9.73311 7.66667 8.44444C7.66667 7.15578 8.71134 6.11111 10 6.11111C11.2887 6.11111 12.3333 7.15578 12.3333 8.44444ZM17 10C17 13.866 13.866 17 10 17C6.13401 17 3 13.866 3 10C3 6.13401 6.13401 3 10 3C13.866 3 17 6.13401 17 10Z" stroke="#475569" stroke-width="1.67" stroke-linecap="round" stroke-linejoin="round"/>
</svg>
