<svg width="20" height="20" viewBox="0 0 20 20" fill="none" xmlns="http://www.w3.org/2000/svg">
<g clip-path="url(#clip0_886_5565)">
<path d="M19.1667 3.33301V8.33301H14.1667" stroke="#94A3B8" stroke-width="2" stroke-linecap="round" stroke-linejoin="round"/>
<path d="M17.0748 12.5003C16.5331 14.0336 15.5078 15.3493 14.1533 16.2491C12.7988 17.1489 11.1885 17.5841 9.56517 17.4892C7.9418 17.3942 6.39328 16.7742 5.15295 15.7226C3.91261 14.6709 3.04767 13.2447 2.68846 11.6587C2.32924 10.0727 2.49522 8.41299 3.16137 6.92956C3.82752 5.44613 4.95777 4.21939 6.38178 3.4342C7.80579 2.64902 9.44643 2.34792 11.0565 2.57629C12.6665 2.80466 14.1587 3.55012 15.3082 4.70034L19.1665 8.33367" stroke="#94A3B8" stroke-width="2" stroke-linecap="round" stroke-linejoin="round"/>
</g>
<defs>
<clipPath id="clip0_886_5565">
<rect width="20" height="20" fill="white"/>
</clipPath>
</defs>
</svg>
