<svg width="20" height="21" viewBox="0 0 20 21" fill="none" xmlns="http://www.w3.org/2000/svg">
<path d="M16.9419 3.93063C15.6473 3.3249 14.263 2.88468 12.8157 2.63402C12.638 2.95536 12.4304 3.38757 12.2872 3.7314C10.7488 3.50003 9.22445 3.50003 7.7143 3.7314C7.57116 3.38757 7.3588 2.95536 7.17947 2.63402C5.73067 2.88468 4.3448 3.32652 3.05016 3.93384C0.438869 7.87984 -0.269009 11.7278 0.0849306 15.5212C1.81688 16.8146 3.49534 17.6002 5.14548 18.1144C5.55291 17.5536 5.91628 16.9576 6.22931 16.3294C5.63313 16.1028 5.06211 15.8233 4.52256 15.4987C4.6657 15.3927 4.80571 15.2818 4.94098 15.1677C8.23183 16.7069 11.8074 16.7069 15.0589 15.1677C15.1958 15.2818 15.3358 15.3927 15.4774 15.4987C14.9362 15.8248 14.3637 16.1044 13.7675 16.331C14.0805 16.9576 14.4423 17.5553 14.8513 18.116C16.503 17.6018 18.1831 16.8162 19.915 15.5212C20.3303 11.1237 19.2056 7.31107 16.9419 3.93063ZM6.67765 13.1883C5.68977 13.1883 4.87963 12.2661 4.87963 11.143C4.87963 10.0199 5.67247 9.09609 6.67765 9.09609C7.68285 9.09609 8.49297 10.0183 8.47567 11.143C8.47723 12.2661 7.68285 13.1883 6.67765 13.1883ZM13.3223 13.1883C12.3344 13.1883 11.5243 12.2661 11.5243 11.143C11.5243 10.0199 12.3171 9.09609 13.3223 9.09609C14.3275 9.09609 15.1376 10.0183 15.1203 11.143C15.1203 12.2661 14.3275 13.1883 13.3223 13.1883Z" fill="#94A3B8"/>
</svg>
