<svg width="18" height="20" viewBox="0 0 18 20" fill="none" xmlns="http://www.w3.org/2000/svg">
<path d="M16.8844 6.81056L14.7497 8.05301L12.9569 9.09534L12.1647 9.55396L10.0301 10.7964C9.70485 10.9882 9.33795 11.0466 8.98773 10.9715C8.82096 10.9382 8.66252 10.8798 8.51243 10.7881L7.26164 10.0459L4.16801 8.26148H4.15134L0.740847 6.38529C0.0237266 5.99337 0.015388 4.96773 0.72417 4.55913L3.36751 3.02483L3.94287 2.69129L8.22058 0.206381C8.69588 -0.0687935 9.27124 -0.0687935 9.74654 0.206381H9.75488C10.7639 0.798422 10.7722 2.25768 9.75488 2.84138L6.01919 5.01776C5.70232 5.20121 5.70232 5.65983 6.01919 5.84328L8.50409 7.27752C8.97105 7.54436 9.53808 7.54436 9.9967 7.27752L11.0057 6.70216L11.0474 6.67714L11.8979 6.18516L13.1904 5.43469L15.3334 4.19224C15.8087 3.91706 16.3841 3.91706 16.8594 4.19224H16.8677C17.8767 4.78428 17.885 6.24353 16.8677 6.82724" fill="#002A68"/>
<path d="M17.8023 11.297L17.7857 13.2816V14.7158C17.7857 15.091 17.5855 15.4413 17.2603 15.6247L17.0268 15.7581L15.2257 16.7921L14.7754 17.0506L11.1731 19.1269H11.1565L10.0308 19.794C9.56379 20.0692 8.98009 20.0692 8.50479 19.794L7.71262 19.327L1.65045 15.8582C1.17515 15.583 0.883301 15.0827 0.883301 14.5407C0.883301 13.6485 1.60876 13.0147 2.40093 13.0147C2.65109 13.0147 2.91792 13.0814 3.15974 13.2232L8.51313 16.2918C8.98009 16.5586 9.54712 16.5586 10.0057 16.2918L13.7498 14.1404C14.3668 13.7902 14.7421 13.1315 14.7421 12.4227C14.7421 12.3643 14.7421 12.2976 14.7421 12.2392V11.3136C14.7421 10.7716 15.0256 10.263 15.5009 9.9878H15.5092C15.6927 9.8794 15.8845 9.81269 16.0762 9.78768C16.8768 9.67928 17.6689 10.2463 17.7773 11.0885C17.7857 11.1552 17.794 11.2219 17.794 11.2886" fill="#002A68"/>
</svg>
