<svg width="20" height="21" viewBox="0 0 20 21" fill="none" xmlns="http://www.w3.org/2000/svg">
<path d="M7.00012 10.375L9.00012 12.375L13.0001 8.375M5.83486 3.07205C6.55239 3.01479 7.23358 2.73263 7.78144 2.26575C9.05993 1.17623 10.9403 1.17623 12.2188 2.26575C12.7667 2.73263 13.4478 3.01479 14.1654 3.07205C15.8398 3.20567 17.1695 4.53531 17.3031 6.20974C17.3603 6.92727 17.6425 7.60846 18.1094 8.15632C19.1989 9.4348 19.1989 11.3152 18.1094 12.5937C17.6425 13.1415 17.3603 13.8227 17.3031 14.5403C17.1695 16.2147 15.8398 17.5443 14.1654 17.678C13.4479 17.7352 12.7667 18.0174 12.2188 18.4843C10.9403 19.5738 9.05993 19.5738 7.78144 18.4843C7.23358 18.0174 6.55239 17.7352 5.83486 17.678C4.16043 17.5443 2.83079 16.2147 2.69717 14.5403C2.63991 13.8227 2.35775 13.1415 1.89087 12.5937C0.801351 11.3152 0.801351 9.4348 1.89087 8.15632C2.35775 7.60846 2.63991 6.92727 2.69717 6.20974C2.83079 4.53531 4.16043 3.20567 5.83486 3.07205Z" stroke="#4B4EFC" stroke-width="2" stroke-linecap="round" stroke-linejoin="round"/>
</svg>
