<svg width="129" height="129" viewBox="0 0 129 129" fill="none" xmlns="http://www.w3.org/2000/svg">
<path d="M128.5 64C128.5 28.6538 99.8462 0 64.5 0C29.1538 0 0.5 28.6538 0.5 64C0.5 99.3462 29.1538 128 64.5 128C99.8462 128 128.5 99.3462 128.5 64Z" fill="#F5F5FF"/>
<path d="M64.4982 66.6C75.9857 66.6 85.2982 57.2875 85.2982 45.8C85.2982 34.3125 75.9857 25 64.4982 25C53.0107 25 43.6982 34.3125 43.6982 45.8C43.6982 57.2875 53.0107 66.6 64.4982 66.6Z" fill="#4B4EFC"/>
<path d="M15.9648 129C15.9648 102.196 37.694 80.4667 64.4982 80.4667C91.3024 80.4667 113.032 102.196 113.032 129H15.9648Z" fill="#4B4EFC"/>
</svg>
